# This file uses centimeters as units for non-parametric coordinates.

mtllib fence.mtl
g default
v -1.750859 2.585369 -0.015629
v -1.752108 2.202048 -0.014994
v 3.318836 2.568851 -0.008928
v 3.317587 2.185530 -0.008293
v 3.318994 2.568652 -0.128631
v 3.317744 2.185332 -0.127997
v -1.750701 2.585170 -0.135332
v -1.751951 2.201850 -0.134698
v -1.750859 1.374873 -0.015629
v -1.752108 0.991553 -0.014994
v 3.318836 1.358355 -0.008928
v 3.317587 0.975035 -0.008293
v 3.318994 1.358157 -0.128631
v 3.317744 0.974836 -0.127997
v -1.750701 1.374675 -0.135332
v -1.751951 0.991354 -0.134698
v 2.053392 -0.054735 0.074485
v 3.023154 -0.054735 0.074485
v 2.053392 3.655810 0.074485
v 3.023733 3.654792 0.077225
v 2.053392 3.655810 -0.045219
v 3.023069 3.653189 -0.048507
v 2.053392 -0.054735 -0.045219
v 3.023154 -0.054735 -0.045219
v 2.049001 3.644408 -0.043869
v 2.529994 4.129626 -0.059758
v 2.050329 3.647613 0.087891
v 2.531322 4.132832 0.072001
v 0.892146 -0.054735 0.074485
v 1.861907 -0.054735 0.074485
v 0.892146 3.655810 0.074485
v 1.862486 3.654792 0.077225
v 0.892146 3.655810 -0.045219
v 1.861822 3.653189 -0.048507
v 0.892146 -0.054735 -0.045219
v 1.861907 -0.054735 -0.045219
v 0.887754 3.644408 -0.043869
v 1.368747 4.129626 -0.059758
v 0.889083 3.647613 0.087891
v 1.370076 4.132832 0.072001
v -0.256992 -0.054735 0.074485
v 0.712770 -0.054735 0.074485
v -0.256992 3.655810 0.074485
v 0.713349 3.654792 0.077225
v -0.256992 3.655810 -0.045219
v 0.712685 3.653189 -0.048507
v -0.256992 -0.054735 -0.045219
v 0.712770 -0.054735 -0.045219
v -0.261383 3.644408 -0.043869
v 0.219610 4.129626 -0.059758
v -0.260055 3.647613 0.087891
v 0.220938 4.132832 0.072001
v -1.436724 -0.054735 0.074485
v -0.466962 -0.054735 0.074485
v -1.436724 3.655810 0.074485
v -0.466383 3.654792 0.077225
v -1.436724 3.655810 -0.045219
v -0.467047 3.653189 -0.048507
v -1.436724 -0.054735 -0.045219
v -0.466962 -0.054735 -0.045219
v -1.441115 3.644408 -0.043869
v -0.960122 4.129626 -0.059758
v -1.439787 3.647613 0.087891
v -0.958794 4.132832 0.072001
vt 0.375000 0.000000
vt 0.625000 0.000000
vt 0.375000 0.250000
vt 0.625000 0.250000
vt 0.375000 0.500000
vt 0.625000 0.500000
vt 0.375000 0.750000
vt 0.625000 0.750000
vt 0.375000 1.000000
vt 0.625000 1.000000
vt 0.875000 0.000000
vt 0.875000 0.250000
vt 0.125000 0.000000
vt 0.125000 0.250000
vt 0.375000 0.000000
vt 0.625000 0.000000
vt 0.625000 0.250000
vt 0.375000 0.250000
vt 0.625000 0.500000
vt 0.375000 0.500000
vt 0.625000 0.750000
vt 0.375000 0.750000
vt 0.625000 1.000000
vt 0.375000 1.000000
vt 0.875000 0.000000
vt 0.875000 0.250000
vt 0.125000 0.000000
vt 0.125000 0.250000
vt 0.375000 0.000000
vt 0.625000 0.000000
vt 0.625000 0.250000
vt 0.375000 0.250000
vt 0.625000 0.500000
vt 0.375000 0.500000
vt 0.625000 0.750000
vt 0.375000 0.750000
vt 0.625000 1.000000
vt 0.375000 1.000000
vt 0.875000 0.000000
vt 0.875000 0.250000
vt 0.125000 0.000000
vt 0.125000 0.250000
vt 0.000000 1.000000
vt 0.994644 0.000000
vt 0.994644 1.000000
vt 0.000000 1.000000
vt 0.994644 1.000000
vt 0.994644 0.000000
vt 0.000000 1.000000
vt 0.994644 0.000000
vt 0.994644 1.000000
vt 0.375000 0.000000
vt 0.625000 0.000000
vt 0.625000 0.250000
vt 0.375000 0.250000
vt 0.625000 0.500000
vt 0.375000 0.500000
vt 0.625000 0.750000
vt 0.375000 0.750000
vt 0.625000 1.000000
vt 0.375000 1.000000
vt 0.875000 0.000000
vt 0.875000 0.250000
vt 0.125000 0.000000
vt 0.125000 0.250000
vt 0.000000 1.000000
vt 0.994644 0.000000
vt 0.994644 1.000000
vt 0.000000 1.000000
vt 0.994644 1.000000
vt 0.994644 0.000000
vt 0.000000 1.000000
vt 0.994644 0.000000
vt 0.994644 1.000000
vt 0.375000 0.000000
vt 0.625000 0.000000
vt 0.625000 0.250000
vt 0.375000 0.250000
vt 0.625000 0.500000
vt 0.375000 0.500000
vt 0.625000 0.750000
vt 0.375000 0.750000
vt 0.625000 1.000000
vt 0.375000 1.000000
vt 0.875000 0.000000
vt 0.875000 0.250000
vt 0.125000 0.000000
vt 0.125000 0.250000
vt 0.000000 1.000000
vt 0.994644 0.000000
vt 0.994644 1.000000
vt 0.000000 1.000000
vt 0.994644 1.000000
vt 0.994644 0.000000
vt 0.000000 1.000000
vt 0.994644 0.000000
vt 0.994644 1.000000
vt 0.375000 0.000000
vt 0.625000 0.000000
vt 0.625000 0.250000
vt 0.375000 0.250000
vt 0.625000 0.500000
vt 0.375000 0.500000
vt 0.625000 0.750000
vt 0.375000 0.750000
vt 0.625000 1.000000
vt 0.375000 1.000000
vt 0.875000 0.000000
vt 0.875000 0.250000
vt 0.125000 0.000000
vt 0.125000 0.250000
vt 0.000000 1.000000
vt 0.994644 0.000000
vt 0.994644 1.000000
vt 0.000000 1.000000
vt 0.994644 1.000000
vt 0.994644 0.000000
vt 0.000000 1.000000
vt 0.994644 0.000000
vt 0.994644 1.000000
vn -0.001316 0.001659 0.999998
vn -0.001316 0.001659 0.999998
vn -0.001316 0.001659 0.999998
vn -0.001316 0.001659 0.999998
vn 0.999994 -0.003258 0.001320
vn 0.999994 -0.003258 0.001320
vn 0.999994 -0.003258 0.001320
vn 0.999994 -0.003258 0.001320
vn 0.001316 -0.001659 -0.999998
vn 0.001316 -0.001659 -0.999998
vn 0.001316 -0.001659 -0.999998
vn 0.001316 -0.001659 -0.999998
vn -0.999994 0.003258 -0.001320
vn -0.999994 0.003258 -0.001320
vn -0.999994 0.003258 -0.001320
vn -0.999994 0.003258 -0.001320
vn -0.003260 -0.999993 0.001656
vn -0.003260 -0.999993 0.001656
vn -0.003260 -0.999993 0.001656
vn -0.003260 -0.999993 0.001656
vn 0.003260 0.999993 -0.001655
vn 0.003260 0.999993 -0.001655
vn 0.003260 0.999993 -0.001655
vn 0.003260 0.999993 -0.001655
vn -0.001316 0.001659 0.999998
vn -0.001316 0.001659 0.999998
vn -0.001316 0.001659 0.999998
vn -0.001316 0.001659 0.999998
vn 0.999994 -0.003258 0.001320
vn 0.999994 -0.003258 0.001320
vn 0.999994 -0.003258 0.001320
vn 0.999994 -0.003258 0.001320
vn 0.001316 -0.001659 -0.999998
vn 0.001316 -0.001659 -0.999998
vn 0.001316 -0.001659 -0.999998
vn 0.001316 -0.001659 -0.999998
vn -0.999994 0.003258 -0.001320
vn -0.999994 0.003258 -0.001320
vn -0.999994 0.003258 -0.001320
vn -0.999994 0.003258 -0.001320
vn -0.003260 -0.999993 0.001656
vn -0.003260 -0.999993 0.001656
vn -0.003260 -0.999993 0.001656
vn -0.003260 -0.999993 0.001656
vn 0.003260 0.999993 -0.001655
vn 0.003260 0.999993 -0.001655
vn 0.003260 0.999993 -0.001655
vn 0.003260 0.999993 -0.001655
vn -0.001413 -0.000369 0.999999
vn -0.001413 -0.000369 0.999999
vn -0.001413 -0.000369 0.999999
vn -0.001413 -0.000369 0.999999
vn 0.001874 0.999977 -0.006535
vn 0.001874 0.999977 -0.006535
vn 0.001874 0.999977 -0.006535
vn 0.001874 0.999977 -0.006535
vn -0.001696 -0.000443 -0.999998
vn -0.001696 -0.000443 -0.999999
vn -0.001696 -0.000443 -0.999998
vn -0.001696 -0.000443 -0.999999
vn 0.000000 -1.000000 0.000000
vn 0.000000 -1.000000 0.000000
vn 0.000000 -1.000000 0.000000
vn 0.000000 -1.000000 0.000000
vn 0.999996 -0.000067 -0.002706
vn 0.999996 -0.000067 -0.002706
vn 0.999996 -0.000067 -0.002706
vn 0.999996 -0.000067 -0.002706
vn -1.000000 0.000000 0.000000
vn -1.000000 0.000000 0.000000
vn -1.000000 0.000000 0.000000
vn -1.000000 0.000000 0.000000
vn 0.010791 0.022040 0.999699
vn 0.010791 0.022040 0.999699
vn 0.010791 0.022040 0.999699
vn -0.004505 -0.028269 -0.999590
vn -0.004505 -0.028269 -0.999590
vn -0.004505 -0.028269 -0.999590
vn 0.008340 -0.999792 0.018601
vn 0.008340 -0.999792 0.018601
vn 0.008340 -0.999792 0.018601
vn 0.008340 -0.999792 0.018601
vn 0.695755 0.718033 -0.018791
vn 0.695755 0.718033 -0.018791
vn 0.695755 0.718033 -0.018791
vn 0.695755 0.718033 -0.018791
vn -0.710320 0.703808 -0.009957
vn -0.710320 0.703808 -0.009957
vn -0.710320 0.703808 -0.009957
vn -0.710320 0.703808 -0.009957
vn -0.001413 -0.000369 0.999999
vn -0.001413 -0.000369 0.999999
vn -0.001413 -0.000369 0.999999
vn -0.001413 -0.000369 0.999999
vn 0.001874 0.999977 -0.006535
vn 0.001874 0.999977 -0.006535
vn 0.001874 0.999977 -0.006535
vn 0.001874 0.999977 -0.006535
vn -0.001696 -0.000443 -0.999998
vn -0.001696 -0.000443 -0.999998
vn -0.001696 -0.000443 -0.999999
vn -0.001696 -0.000443 -0.999999
vn 0.000000 -1.000000 0.000000
vn 0.000000 -1.000000 0.000000
vn 0.000000 -1.000000 0.000000
vn 0.000000 -1.000000 0.000000
vn 0.999996 -0.000067 -0.002706
vn 0.999996 -0.000067 -0.002706
vn 0.999996 -0.000067 -0.002706
vn 0.999996 -0.000067 -0.002706
vn -1.000000 0.000000 0.000000
vn -1.000000 0.000000 0.000000
vn -1.000000 0.000000 0.000000
vn -1.000000 0.000000 0.000000
vn 0.010791 0.022040 0.999699
vn 0.010791 0.022040 0.999699
vn 0.010791 0.022040 0.999699
vn -0.004505 -0.028269 -0.999590
vn -0.004505 -0.028269 -0.999590
vn -0.004505 -0.028269 -0.999590
vn 0.008340 -0.999792 0.018603
vn 0.008340 -0.999792 0.018603
vn 0.008340 -0.999792 0.018603
vn 0.008340 -0.999792 0.018603
vn 0.695755 0.718033 -0.018794
vn 0.695755 0.718033 -0.018794
vn 0.695755 0.718033 -0.018794
vn 0.695755 0.718033 -0.018794
vn -0.710320 0.703809 -0.009957
vn -0.710320 0.703808 -0.009957
vn -0.710320 0.703809 -0.009957
vn -0.710320 0.703808 -0.009957
vn -0.001413 -0.000369 0.999999
vn -0.001413 -0.000369 0.999999
vn -0.001413 -0.000369 0.999999
vn -0.001413 -0.000369 0.999999
vn 0.001874 0.999977 -0.006535
vn 0.001874 0.999977 -0.006535
vn 0.001874 0.999977 -0.006535
vn 0.001874 0.999977 -0.006535
vn -0.001696 -0.000443 -0.999998
vn -0.001696 -0.000443 -0.999998
vn -0.001696 -0.000443 -0.999999
vn -0.001696 -0.000443 -0.999999
vn 0.000000 -1.000000 0.000000
vn 0.000000 -1.000000 0.000000
vn 0.000000 -1.000000 0.000000
vn 0.000000 -1.000000 0.000000
vn 0.999996 -0.000067 -0.002706
vn 0.999996 -0.000067 -0.002706
vn 0.999996 -0.000067 -0.002706
vn 0.999996 -0.000067 -0.002706
vn -1.000000 0.000000 0.000000
vn -1.000000 0.000000 0.000000
vn -1.000000 0.000000 0.000000
vn -1.000000 0.000000 0.000000
vn 0.010791 0.022040 0.999699
vn 0.010791 0.022040 0.999699
vn 0.010791 0.022040 0.999699
vn -0.004505 -0.028269 -0.999590
vn -0.004505 -0.028269 -0.999590
vn -0.004505 -0.028269 -0.999590
vn 0.008340 -0.999792 0.018603
vn 0.008340 -0.999792 0.018603
vn 0.008340 -0.999792 0.018603
vn 0.008340 -0.999792 0.018603
vn 0.695755 0.718034 -0.018794
vn 0.695755 0.718034 -0.018794
vn 0.695755 0.718034 -0.018794
vn 0.695755 0.718033 -0.018794
vn -0.710320 0.703808 -0.009957
vn -0.710320 0.703808 -0.009957
vn -0.710320 0.703808 -0.009957
vn -0.710320 0.703808 -0.009957
vn -0.001413 -0.000369 0.999999
vn -0.001413 -0.000369 0.999999
vn -0.001413 -0.000369 0.999999
vn -0.001413 -0.000369 0.999999
vn 0.001874 0.999977 -0.006535
vn 0.001874 0.999977 -0.006535
vn 0.001874 0.999977 -0.006535
vn 0.001874 0.999977 -0.006535
vn -0.001696 -0.000443 -0.999998
vn -0.001696 -0.000443 -0.999998
vn -0.001696 -0.000443 -0.999999
vn -0.001696 -0.000443 -0.999999
vn 0.000000 -1.000000 0.000000
vn 0.000000 -1.000000 0.000000
vn 0.000000 -1.000000 0.000000
vn 0.000000 -1.000000 0.000000
vn 0.999996 -0.000067 -0.002706
vn 0.999996 -0.000067 -0.002706
vn 0.999996 -0.000067 -0.002706
vn 0.999996 -0.000067 -0.002706
vn -1.000000 0.000000 0.000000
vn -1.000000 0.000000 0.000000
vn -1.000000 0.000000 0.000000
vn -1.000000 0.000000 0.000000
vn 0.010791 0.022040 0.999699
vn 0.010791 0.022040 0.999699
vn 0.010791 0.022040 0.999699
vn -0.004505 -0.028269 -0.999590
vn -0.004505 -0.028269 -0.999590
vn -0.004505 -0.028269 -0.999590
vn 0.008340 -0.999792 0.018603
vn 0.008340 -0.999792 0.018603
vn 0.008340 -0.999792 0.018603
vn 0.008340 -0.999792 0.018603
vn 0.695755 0.718034 -0.018794
vn 0.695755 0.718034 -0.018794
vn 0.695755 0.718034 -0.018794
vn 0.695755 0.718033 -0.018794
vn -0.710320 0.703809 -0.009957
vn -0.710320 0.703809 -0.009957
vn -0.710320 0.703808 -0.009957
vn -0.710320 0.703808 -0.009957
s off
g polySurface5
usemtl initialShadingGroup
f 1/1/1 2/2/2 4/4/3 3/3/4
f 3/3/5 4/4/6 6/6/7 5/5/8
f 5/5/9 6/6/10 8/8/11 7/7/12
f 7/7/13 8/8/14 2/10/15 1/9/16
f 2/2/17 8/11/18 6/12/19 4/4/20
f 7/13/21 1/1/22 3/3/23 5/14/24
f 9/15/25 10/16/26 12/17/27 11/18/28
f 11/18/29 12/17/30 14/19/31 13/20/32
f 13/20/33 14/19/34 16/21/35 15/22/36
f 15/22/37 16/21/38 10/23/39 9/24/40
f 10/16/41 16/25/42 14/26/43 12/17/44
f 15/27/45 9/15/46 11/18/47 13/28/48
f 17/29/49 18/30/50 20/31/51 19/32/52
f 19/32/53 20/31/54 22/33/55 21/34/56
f 21/34/57 22/33/58 24/35/59 23/36/60
f 23/36/61 24/35/62 18/37/63 17/38/64
f 18/30/65 24/39/66 22/40/67 20/31/68
f 23/41/69 17/29/70 19/32/71 21/42/72
f 27/43/73 20/44/74 28/45/75
f 25/46/76 26/47/77 22/48/78
f 25/49/79 22/50/80 20/44/81 27/43/82
f 22/50/83 26/51/84 28/45/85 20/44/86
f 26/51/87 25/49/88 27/43/89 28/45/90
f 29/52/91 30/53/92 32/54/93 31/55/94
f 31/55/95 32/54/96 34/56/97 33/57/98
f 33/57/99 34/56/100 36/58/101 35/59/102
f 35/59/103 36/58/104 30/60/105 29/61/106
f 30/53/107 36/62/108 34/63/109 32/54/110
f 35/64/111 29/52/112 31/55/113 33/65/114
f 39/66/115 32/67/116 40/68/117
f 37/69/118 38/70/119 34/71/120
f 37/72/121 34/73/122 32/67/123 39/66/124
f 34/73/125 38/74/126 40/68/127 32/67/128
f 38/74/129 37/72/130 39/66/131 40/68/132
f 41/75/133 42/76/134 44/77/135 43/78/136
f 43/78/137 44/77/138 46/79/139 45/80/140
f 45/80/141 46/79/142 48/81/143 47/82/144
f 47/82/145 48/81/146 42/83/147 41/84/148
f 42/76/149 48/85/150 46/86/151 44/77/152
f 47/87/153 41/75/154 43/78/155 45/88/156
f 51/89/157 44/90/158 52/91/159
f 49/92/160 50/93/161 46/94/162
f 49/95/163 46/96/164 44/90/165 51/89/166
f 46/96/167 50/97/168 52/91/169 44/90/170
f 50/97/171 49/95/172 51/89/173 52/91/174
f 53/98/175 54/99/176 56/100/177 55/101/178
f 55/101/179 56/100/180 58/102/181 57/103/182
f 57/103/183 58/102/184 60/104/185 59/105/186
f 59/105/187 60/104/188 54/106/189 53/107/190
f 54/99/191 60/108/192 58/109/193 56/100/194
f 59/110/195 53/98/196 55/101/197 57/111/198
f 63/112/199 56/113/200 64/114/201
f 61/115/202 62/116/203 58/117/204
f 61/118/205 58/119/206 56/113/207 63/112/208
f 58/119/209 62/120/210 64/114/211 56/113/212
f 62/120/213 61/118/214 63/112/215 64/114/216
