# This file uses centimeters as units for non-parametric coordinates.

mtllib trunk.mtl
g softMod2Set softMod3Set softMod4Set softMod5Set tweakSet2
v 0.624002 -0.000000 -0.307722
v 0.505248 -0.000000 -0.538943
v 0.320373 -0.000000 -0.721672
v 0.087343 -0.000000 -0.838030
v -0.171152 -0.000000 -0.876604
v -0.429878 -0.000000 -0.833573
v -0.663498 -0.000000 -0.713105
v -0.849061 -0.000000 -0.526960
v -0.968284 -0.000000 -0.293355
v -0.780406 -0.000000 -0.165250
v -0.968261 -0.000000 0.222246
v -0.703829 -0.000000 0.064559
v -0.663210 -0.000000 0.636457
v -0.429329 -0.000000 0.752661
v -0.170323 -0.000000 0.790945
v 0.088377 -0.000000 0.747601
v 0.321444 -0.000000 0.626913
v 0.506140 -0.000000 0.440726
v 0.624510 -0.000000 0.207274
v 0.665095 -0.000000 -0.050609
v -0.213222 6.237112 -0.414156
v -0.270241 6.238504 -0.523603
v -0.358415 6.242496 -0.609816
v -0.468765 6.248650 -0.664190
v -0.590264 6.256268 -0.681306
v -0.710992 6.264505 -0.659494
v -0.819287 6.272502 -0.600969
v -0.904812 6.279489 -0.511583
v -0.959466 6.284852 -0.400201
v -0.978095 6.288153 -0.277804
v -0.958935 6.289137 -0.156396
v -0.903770 6.287737 -0.047819
v -0.817786 6.284073 0.037396
v -0.709125 6.278453 0.091026
v -0.588178 6.271367 0.107926
v -0.466661 6.263454 0.086502
v -0.356530 6.255456 0.028827
v -0.268816 6.248145 -0.059565
v -0.212454 6.242259 -0.170185
v -0.193261 6.238430 -0.292351
v -0.172564 -0.000000 -0.048616
v -0.601004 6.258378 -0.296926
vt 0.648603 0.107966
vt 0.626409 0.064408
vt 0.591842 0.029841
vt 0.548284 0.007647
vt 0.500000 -0.000000
vt 0.451716 0.007647
vt 0.408159 0.029841
vt 0.373591 0.064409
vt 0.351397 0.107966
vt 0.343750 0.156250
vt 0.351397 0.204534
vt 0.373591 0.248091
vt 0.408159 0.282659
vt 0.451716 0.304853
vt 0.500000 0.312500
vt 0.548284 0.304853
vt 0.591841 0.282659
vt 0.626409 0.248091
vt 0.648603 0.204534
vt 0.656250 0.156250
vt 0.375000 0.312500
vt 0.387500 0.312500
vt 0.400000 0.312500
vt 0.412500 0.312500
vt 0.425000 0.312500
vt 0.437500 0.312500
vt 0.450000 0.312500
vt 0.462500 0.312500
vt 0.475000 0.312500
vt 0.487500 0.312500
vt 0.500000 0.312500
vt 0.512500 0.312500
vt 0.525000 0.312500
vt 0.537500 0.312500
vt 0.550000 0.312500
vt 0.562500 0.312500
vt 0.575000 0.312500
vt 0.587500 0.312500
vt 0.600000 0.312500
vt 0.612500 0.312500
vt 0.625000 0.312500
vt 0.375000 0.688440
vt 0.387500 0.688440
vt 0.400000 0.688440
vt 0.412500 0.688440
vt 0.425000 0.688440
vt 0.437500 0.688440
vt 0.450000 0.688440
vt 0.462500 0.688440
vt 0.475000 0.688440
vt 0.487500 0.688440
vt 0.500000 0.688440
vt 0.512500 0.688440
vt 0.525000 0.688440
vt 0.537500 0.688440
vt 0.550000 0.688440
vt 0.562500 0.688440
vt 0.575000 0.688440
vt 0.587500 0.688440
vt 0.600000 0.688440
vt 0.612500 0.688440
vt 0.625000 0.688440
vt 0.648603 0.795466
vt 0.626409 0.751908
vt 0.591842 0.717341
vt 0.548284 0.695147
vt 0.500000 0.687500
vt 0.451716 0.695147
vt 0.408159 0.717341
vt 0.373591 0.751909
vt 0.351397 0.795466
vt 0.343750 0.843750
vt 0.351397 0.892034
vt 0.373591 0.935591
vt 0.408159 0.970159
vt 0.451716 0.992353
vt 0.500000 1.000000
vt 0.548284 0.992353
vt 0.591841 0.970159
vt 0.626409 0.935591
vt 0.648603 0.892034
vt 0.656250 0.843750
vt 0.500000 0.150000
vt 0.500000 0.837500
vn 0.945739 0.121799 -0.301234
vn 0.808419 0.101900 -0.579720
vn 0.794021 0.100167 -0.599581
vn 0.940012 0.120734 -0.319063
vn 0.590108 0.078558 -0.803493
vn 0.567447 0.076393 -0.819859
vn 0.311148 0.054108 -0.948820
vn 0.283960 0.051937 -0.957429
vn -0.000438 0.031210 -0.999513
vn -0.026494 0.029476 -0.999214
vn -0.312085 0.012427 -0.949973
vn -0.331843 0.011382 -0.943266
vn -0.591699 -0.000280 -0.806159
vn -0.602659 -0.000675 -0.797998
vn -0.812076 -0.005815 -0.583523
vn -0.815181 -0.005844 -0.579176
vn -0.999984 -0.005622 -0.000099
vn -0.999937 -0.005655 -0.009672
vn -0.999765 -0.019995 -0.008351
vn -0.999788 -0.019640 0.006149
vn -0.944827 -0.001347 0.327567
vn -0.970787 -0.005162 0.239887
vn -0.814905 0.001792 0.579592
vn -0.785863 0.003963 0.618388
vn -0.849348 0.022222 0.527365
vn -0.888737 0.013753 0.458211
vn -0.283199 0.088081 0.955008
vn -0.309222 0.086064 0.947088
vn 0.025255 0.109930 0.993618
vn 0.000786 0.108323 0.994115
vn 0.326094 0.127753 0.936665
vn 0.307566 0.126759 0.943046
vn 0.592918 0.140050 0.792990
vn 0.582392 0.139646 0.800824
vn 0.803945 0.145855 0.576540
vn 0.800742 0.145811 0.580992
vn 0.941084 0.144661 0.305671
vn 0.941968 0.144616 0.302957
vn 0.990639 0.136452 0.003790
vn 0.990677 0.136028 -0.007427
vn 0.000000 -1.000000 0.000001
vn 0.000000 -1.000000 0.000000
vn 0.000000 -1.000000 -0.000000
vn 0.000000 -1.000000 0.000001
vn 0.000000 -1.000000 -0.000000
vn 0.000000 -1.000000 -0.000000
vn 0.000000 -1.000000 0.000000
vn 0.000000 -1.000000 -0.000001
vn 0.000000 -1.000000 -0.000001
vn 0.000000 -1.000000 -0.000000
vn 0.000000 -1.000000 -0.000001
vn 0.000000 -1.000000 0.000000
vn 0.000000 -1.000000 0.000002
vn 0.000000 -1.000000 -0.000000
vn 0.000000 -1.000000 -0.000001
vn 0.000000 -1.000000 -0.000000
vn 0.000000 -1.000000 0.000001
vn 0.000000 -1.000000 -0.000001
vn 0.000000 -1.000000 0.000000
vn 0.000000 -1.000000 0.000001
vn 0.000000 -1.000000 0.000000
vn 0.049830 0.998624 -0.016325
vn 0.052209 0.998571 -0.011364
vn 0.063193 0.997819 -0.019071
vn 0.056034 0.998403 -0.007234
vn 0.060623 0.998150 -0.004610
vn 0.065173 0.997867 -0.003655
vn 0.069204 0.997594 -0.004133
vn 0.072626 0.997342 -0.005810
vn 0.075419 0.997114 -0.008673
vn 0.077304 0.996926 -0.012753
vn 0.077806 0.996810 -0.017780
vn 0.076601 0.996795 -0.023081
vn 0.073779 0.996886 -0.027822
vn 0.069829 0.997066 -0.031352
vn 0.065398 0.997301 -0.033380
vn 0.061053 0.997557 -0.033939
vn 0.057170 0.997811 -0.033243
vn 0.053939 0.998046 -0.031528
vn 0.051435 0.998257 -0.028947
vn 0.049745 0.998436 -0.025521
vn 0.049091 0.998568 -0.021246
s 1
g pCylinder1
usemtl initialShadingGroup
f 1/21/1 2/22/2 22/43/3 21/42/4
f 2/22/2 3/23/5 23/44/6 22/43/3
f 3/23/5 4/24/7 24/45/8 23/44/6
f 4/24/7 5/25/9 25/46/10 24/45/8
f 5/25/9 6/26/11 26/47/12 25/46/10
f 6/26/11 7/27/13 27/48/14 26/47/12
f 7/27/13 8/28/15 28/49/16 27/48/14
f 8/28/15 9/29/17 29/50/18 28/49/16
f 9/29/17 10/30/19 30/51/20 29/50/18
f 10/30/19 11/31/21 31/52/22 30/51/20
f 11/31/21 12/32/23 32/53/24 31/52/22
f 12/32/23 13/33/25 33/54/26 32/53/24
f 13/33/25 14/34/27 34/55/28 33/54/26
f 14/34/27 15/35/29 35/56/30 34/55/28
f 15/35/29 16/36/31 36/57/32 35/56/30
f 16/36/31 17/37/33 37/58/34 36/57/32
f 17/37/33 18/38/35 38/59/36 37/58/34
f 18/38/35 19/39/37 39/60/38 38/59/36
f 19/39/37 20/40/39 40/61/40 39/60/38
f 20/40/39 1/41/1 21/62/4 40/61/40
s 2
f 2/2/41 1/1/42 41/83/43
f 3/3/44 2/2/41 41/83/43
f 4/4/45 3/3/44 41/83/43
f 5/5/46 4/4/45 41/83/43
f 6/6/47 5/5/46 41/83/43
f 7/7/48 6/6/47 41/83/43
f 8/8/49 7/7/48 41/83/43
f 9/9/50 8/8/49 41/83/43
f 10/10/51 9/9/50 41/83/43
f 11/11/52 10/10/51 41/83/43
f 12/12/53 11/11/52 41/83/43
f 13/13/54 12/12/53 41/83/43
f 14/14/55 13/13/54 41/83/43
f 15/15/56 14/14/55 41/83/43
f 16/16/57 15/15/56 41/83/43
f 17/17/58 16/16/57 41/83/43
f 18/18/59 17/17/58 41/83/43
f 19/19/60 18/18/59 41/83/43
f 20/20/61 19/19/60 41/83/43
f 1/1/42 20/20/61 41/83/43
s 3
f 21/81/62 22/80/63 42/84/64
f 22/80/63 23/79/65 42/84/64
f 23/79/65 24/78/66 42/84/64
f 24/78/66 25/77/67 42/84/64
f 25/77/67 26/76/68 42/84/64
f 26/76/68 27/75/69 42/84/64
f 27/75/69 28/74/70 42/84/64
f 28/74/70 29/73/71 42/84/64
f 29/73/71 30/72/72 42/84/64
f 30/72/72 31/71/73 42/84/64
f 31/71/73 32/70/74 42/84/64
f 32/70/74 33/69/75 42/84/64
f 33/69/75 34/68/76 42/84/64
f 34/68/76 35/67/77 42/84/64
f 35/67/77 36/66/78 42/84/64
f 36/66/78 37/65/79 42/84/64
f 37/65/79 38/64/80 42/84/64
f 38/64/80 39/63/81 42/84/64
f 39/63/81 40/82/82 42/84/64
f 40/82/82 21/81/62 42/84/64
